<?xml version="1.0" standalone="no"?>
<!DOCTYPE svg PUBLIC "-//W3C//DTD SVG 20010904//EN"
 "http://www.w3.org/TR/2001/REC-SVG-20010904/DTD/svg10.dtd">
<svg version="1.0" xmlns="http://www.w3.org/2000/svg"
 width="495.000000pt" height="144.000000pt" viewBox="0 0 495.000000 144.000000"
 preserveAspectRatio="xMidYMid meet">

<g transform="translate(0.000000,144.000000) scale(0.100000,-0.100000)"
fill="#000000" stroke="none">
<path d="M2309 1392 c-85 -28 -115 -50 -128 -92 -17 -58 -14 -62 29 -35 22 14
54 28 70 32 30 5 30 5 23 -28 -5 -19 -8 -68 -8 -109 0 -100 28 -159 93 -197
41 -24 60 -28 150 -31 106 -4 247 20 317 54 26 12 27 13 5 9 -14 -3 -63 -13
-110 -22 -200 -38 -360 47 -360 191 0 104 62 174 143 161 104 -17 190 -78 267
-188 58 -82 64 -71 15 31 -44 92 -114 163 -203 205 -58 28 -79 32 -157 34 -66
2 -105 -2 -146 -15z"/>
<path d="M2111 1264 c-112 -128 -118 -248 -17 -349 116 -116 334 -145 551 -74
60 20 242 107 250 119 2 4 -41 -8 -96 -27 -318 -106 -570 -71 -645 91 -28 60
-32 165 -10 239 8 26 13 47 11 47 -2 0 -21 -21 -44 -46z"/>
<path d="M2024 883 c26 -110 114 -216 224 -270 74 -37 79 -38 186 -38 104 0
115 2 178 32 37 17 89 52 116 77 47 44 107 137 100 155 -2 5 -35 -4 -74 -19
-242 -97 -504 -75 -687 56 l-50 36 7 -29z"/>
<path d="M60 487 c-43 -15 -52 -48 -17 -64 18 -9 39 -48 92 -175 94 -226 90
-220 128 -216 30 3 33 9 120 200 79 174 92 198 118 207 60 21 24 61 -55 61
-83 0 -118 -29 -81 -66 10 -10 12 -21 6 -37 -26 -65 -51 -116 -60 -121 -13 -8
-34 23 -60 91 -17 45 -18 53 -6 63 25 21 18 47 -16 59 -41 14 -124 13 -169 -2z"/>
<path d="M4700 486 c-68 -15 -100 -32 -100 -53 0 -9 10 -27 23 -41 20 -22 22
-33 22 -154 0 -112 -2 -131 -17 -142 -26 -19 -22 -45 8 -56 33 -13 115 -13
148 0 29 10 35 44 11 54 -12 4 -15 39 -17 202 -2 121 -7 198 -13 200 -5 1 -35
-3 -65 -10z"/>
<path d="M4888 493 c6 -2 18 -2 25 0 6 3 1 5 -13 5 -14 0 -19 -2 -12 -5z"/>
<path d="M583 470 c-60 -36 -29 -88 44 -77 50 8 83 33 83 61 0 41 -72 50 -127
16z"/>
<path d="M4851 477 c-6 -6 -11 -15 -11 -21 0 -5 7 -1 15 10 13 18 14 16 16
-21 2 -36 3 -37 6 -8 3 20 11 33 21 35 11 3 8 6 -10 10 -15 3 -32 0 -37 -5z"/>
<path d="M4936 477 c3 -10 9 -15 12 -12 3 3 0 11 -7 18 -10 9 -11 8 -5 -6z"/>
<path d="M4912 447 c-8 -9 -8 -17 0 -27 8 -13 9 -12 5 1 -3 9 0 22 6 28 6 6 8
11 5 11 -3 0 -10 -6 -16 -13z"/>
<path d="M1183 398 c-78 -56 -93 -84 -45 -90 l27 -3 5 -113 c5 -111 6 -114 34
-139 26 -22 37 -25 84 -21 43 4 59 11 84 35 40 41 33 67 -16 58 -46 -9 -58 14
-54 103 l3 67 43 3 c41 3 42 4 42 37 0 33 -1 34 -42 37 -42 3 -43 4 -46 41 -4
52 -29 49 -119 -15z"/>
<path d="M2903 399 c-49 -33 -73 -56 -73 -69 0 -14 7 -20 24 -20 23 0 24 -2
28 -111 l3 -111 34 -30 c31 -28 39 -30 89 -26 47 4 60 10 84 37 36 41 32 57
-15 53 -47 -4 -59 18 -55 106 l3 67 43 3 c41 3 42 4 42 37 0 33 -1 34 -42 37
-42 3 -43 4 -46 41 -4 51 -29 49 -119 -14z"/>
<path d="M4888 383 c6 -2 18 -2 25 0 6 3 1 5 -13 5 -14 0 -19 -2 -12 -5z"/>
<path d="M896 360 c-38 -12 -85 -57 -102 -97 -31 -72 -3 -176 58 -213 82 -50
245 1 223 70 -4 12 -12 19 -18 16 -66 -28 -88 -29 -115 -9 -15 11 -28 30 -30
41 -3 20 2 21 85 24 l88 3 3 35 c3 39 -24 90 -60 114 -30 20 -95 28 -132 16z
m72 -62 c21 -21 14 -47 -14 -54 -36 -9 -60 15 -45 45 13 23 40 28 59 9z"/>
<path d="M1501 347 c-73 -25 -97 -50 -67 -72 15 -12 18 -26 17 -90 -1 -49 -7
-85 -17 -100 -13 -21 -13 -24 2 -40 14 -14 31 -16 86 -13 80 4 97 16 80 53
-13 27 -16 142 -6 169 10 26 53 20 64 -10 15 -39 12 -121 -6 -156 -15 -30 -15
-32 2 -46 23 -17 147 -13 166 6 10 10 9 18 -5 41 -11 19 -17 51 -17 93 -1 130
-28 180 -99 182 -31 0 -46 -6 -69 -27 -33 -32 -42 -34 -42 -8 0 36 -21 41 -89
18z"/>
<path d="M1951 352 c-50 -19 -85 -59 -75 -85 10 -28 48 -20 83 18 17 19 36 35
41 35 29 0 39 -93 10 -97 -66 -8 -93 -17 -120 -39 -40 -34 -42 -93 -5 -129 29
-30 92 -34 131 -9 23 15 26 15 43 0 27 -24 78 -20 106 9 29 28 31 47 10 65
-11 9 -15 32 -15 82 0 89 -19 134 -64 153 -45 19 -90 18 -145 -3z m74 -213 c0
-28 -4 -35 -22 -37 -19 -3 -23 1 -23 25 0 31 17 56 35 50 5 -2 10 -19 10 -38z"/>
<path d="M2310 354 c-30 -8 -62 -22 -72 -31 -16 -15 -17 -18 -3 -39 21 -32 21
-177 0 -194 -42 -34 3 -64 87 -58 76 6 83 13 69 76 -12 60 -4 152 16 159 7 3
20 0 28 -7 22 -18 20 -142 -2 -177 -16 -24 -16 -26 3 -40 13 -10 38 -14 86
-11 80 4 97 16 80 53 -7 14 -12 59 -12 100 0 63 3 76 19 84 14 8 22 7 32 -6
19 -22 18 -155 -1 -178 -13 -15 -12 -20 9 -36 26 -21 109 -26 142 -9 20 11 26
45 9 55 -6 3 -10 52 -10 110 0 95 -2 106 -24 132 -33 38 -89 38 -139 0 -34
-26 -36 -26 -49 -9 -24 34 -57 45 -98 33 -20 -6 -45 -20 -55 -31 -24 -27 -31
-25 -38 10 -7 34 -4 34 -77 14z"/>
<path d="M3206 352 c-64 -22 -80 -46 -47 -71 22 -16 23 -24 19 -89 -2 -50 -9
-76 -22 -91 -23 -26 -17 -53 14 -62 32 -9 128 -9 160 0 35 10 38 44 6 65 -23
15 -26 23 -26 81 0 71 9 84 35 55 41 -45 115 -8 115 57 0 37 -29 73 -59 73
-11 0 -33 -11 -49 -25 -37 -31 -40 -31 -44 -2 -4 29 -37 32 -102 9z"/>
<path d="M3575 351 c-49 -22 -68 -43 -63 -73 5 -37 36 -34 79 8 33 32 40 35
54 24 11 -9 15 -26 13 -49 -3 -35 -4 -36 -56 -43 -71 -8 -112 -45 -112 -99 0
-20 8 -47 18 -59 24 -29 89 -37 131 -16 28 15 34 15 53 1 31 -21 70 -19 102 6
29 22 35 63 11 73 -11 4 -15 23 -15 80 0 41 -4 86 -10 100 -23 61 -124 84
-205 47z m83 -208 c-2 -30 -7 -38 -23 -38 -24 0 -33 38 -15 61 24 28 41 17 38
-23z"/>
<path d="M3873 359 c-38 -11 -42 -31 -11 -53 12 -9 52 -73 88 -143 89 -176 91
-176 175 1 42 87 74 142 90 152 28 19 32 39 9 48 -28 11 -90 6 -109 -8 -17
-12 -18 -17 -6 -39 11 -21 10 -29 -3 -56 -21 -40 -43 -40 -60 1 -12 27 -12 35
2 55 11 17 12 27 4 35 -14 14 -139 20 -179 7z"/>
<path d="M4345 347 c-56 -31 -88 -94 -82 -165 9 -122 128 -188 238 -132 78 40
78 108 0 77 -22 -9 -48 -14 -58 -10 -29 10 -53 35 -53 55 0 16 9 18 84 18 77
0 85 2 91 21 17 51 -19 116 -82 148 -34 18 -95 13 -138 -12z m110 -57 c9 -28
-2 -40 -35 -40 -35 0 -45 13 -30 40 14 26 57 27 65 0z"/>
<path d="M605 344 c-22 -8 -46 -21 -54 -29 -13 -13 -12 -18 7 -38 18 -19 22
-35 22 -94 0 -50 -4 -76 -15 -87 -22 -22 -19 -53 8 -60 36 -9 137 -7 158 4 23
13 25 36 4 56 -12 12 -15 43 -15 140 l0 124 -37 -1 c-21 0 -56 -7 -78 -15z"/>
</g>
</svg>
